<svg width="488" height="192" viewBox="0 0 488 192" fill="none" xmlns="http://www.w3.org/2000/svg">
<path d="M239 48L182 156H195.11L242.5 69.0206L272.5 105.238L242.5 116.075H292L313.5 92.4053L347.35 29.0957L381.604 92.4053L360.248 100.39L335.72 141.741L373.569 113.508L396.405 146.019L389.004 105.238L414.378 69.0206L443.768 109.516L441.442 125.486L452.226 119.212L475.908 153.433L485 151.722L415.435 53.9062L392.176 80.7129L346.715 4L317.747 66.7392L298.5 78L286 95.5L239 48Z" fill="#4C5240" stroke="#4C5240" stroke-width="3"/>
<path d="M12.708 45.5156H48.9521C57.1735 45.5156 64.1165 46.7689 69.7812 49.2754C75.4961 51.7819 79.8324 55.4915 82.79 60.4043C85.7979 65.2669 87.3018 71.2575 87.3018 78.376C87.3018 83.389 86.2741 87.9759 84.2188 92.1367C82.2135 96.2474 79.306 99.7565 75.4961 102.664C71.7363 105.521 67.2246 107.652 61.9609 109.056L57.9004 110.635H23.8369L23.6865 98.8291H49.4033C54.6169 98.8291 58.9531 97.9268 62.4121 96.1221C65.8711 94.2673 68.4779 91.7858 70.2324 88.6777C71.987 85.5697 72.8643 82.1357 72.8643 78.376C72.8643 74.165 72.0371 70.4805 70.3828 67.3223C68.7285 64.1641 66.1217 61.7327 62.5625 60.0283C59.0534 58.2738 54.5166 57.3965 48.9521 57.3965H27.2207V155H12.708V45.5156ZM76.6992 155L50.0801 105.371L65.1943 105.296L92.1895 154.098V155H76.6992ZM191.898 96.7988V103.717C191.898 111.938 190.871 119.307 188.815 125.824C186.76 132.341 183.802 137.881 179.942 142.442C176.082 147.004 171.445 150.488 166.031 152.895C160.667 155.301 154.652 156.504 147.984 156.504C141.518 156.504 135.577 155.301 130.163 152.895C124.799 150.488 120.137 147.004 116.177 142.442C112.267 137.881 109.234 132.341 107.078 125.824C104.923 119.307 103.845 111.938 103.845 103.717V96.7988C103.845 88.5775 104.897 81.2334 107.003 74.7666C109.159 68.2497 112.191 62.7103 116.102 58.1484C120.012 53.5365 124.649 50.0273 130.013 47.6211C135.427 45.2148 141.367 44.0117 147.834 44.0117C154.501 44.0117 160.517 45.2148 165.881 47.6211C171.295 50.0273 175.932 53.5365 179.792 58.1484C183.702 62.7103 186.685 68.2497 188.74 74.7666C190.846 81.2334 191.898 88.5775 191.898 96.7988ZM177.536 103.717V96.6484C177.536 90.1315 176.859 84.3665 175.506 79.3535C174.202 74.3405 172.272 70.1296 169.716 66.7207C167.159 63.3118 164.026 60.7301 160.316 58.9756C156.657 57.221 152.496 56.3438 147.834 56.3438C143.322 56.3438 139.237 57.221 135.577 58.9756C131.968 60.7301 128.86 63.3118 126.253 66.7207C123.696 70.1296 121.716 74.3405 120.312 79.3535C118.909 84.3665 118.207 90.1315 118.207 96.6484V103.717C118.207 110.284 118.909 116.099 120.312 121.162C121.716 126.175 123.721 130.411 126.328 133.87C128.985 137.279 132.118 139.861 135.728 141.615C139.387 143.37 143.473 144.247 147.984 144.247C152.697 144.247 156.882 143.37 160.542 141.615C164.201 139.861 167.285 137.279 169.791 133.87C172.348 130.411 174.278 126.175 175.581 121.162C176.884 116.099 177.536 110.284 177.536 103.717Z" fill="#878545"/>
</svg>
